<?xml version="1.0" encoding="UTF-8"?>
<svg width="128pt" height="128pt" version="1.1" viewBox="0 0 128 128" xmlns="http://www.w3.org/2000/svg">
 <path d="m75.559 57.754c-0.015625-0.015625-0.023438-0.015625-0.039063-0.023437-0.050781-0.074219-0.089843-0.16406-0.15625-0.23047 1.6016-0.089844 2.1914-0.38672 2.5469-0.79688 0.24609-0.28125 0.37109-0.71484 0.32031-1.0742-0.074219-0.48438-0.46094-0.89453-0.93359-1.0352-0.066406-0.023438-1.6016-0.53906-1.5742-3.8242 0-0.82031 0.074219-1.7656 0.14062-2.7812 0.30469-4.3008 0.73047-10.199-3.5703-13.824-5.5156-4.6445-13.926-5.875-20.93-3.0703-3.9062 1.5742-5.9258 2.4609-7.4102 3.1016-1.2031 0.52344-1.9961 0.87109-3.1367 1.2969-0.69141 0.25391-2.3164 0.85937-2.4219 2.3164-0.089843 1.4102 1.2969 2.3281 2.5195 2.9688 0.96094 0.51172 1.8711 0.76953 2.625 0.91016-0.92187 1.9609-0.30469 3.1094 0.69141 4.5469l0.066406 0.10156c-0.16406 0.42187-0.91016 1.2656-1.3711 1.8047-1.125 1.2969-2.2891 2.6367-2.125 4.0859 0.15625 1.4219 1.5742 1.9844 2.8281 2.2148-0.039062 0.12891-0.066406 0.26953-0.10156 0.41016-0.19141 0.88672-0.050782 1.4219 0.11328 1.8945 0.066406 0.20312 0.089844 0.26953 0.074219 0.48438-0.074219 0.82031 0.23047 1.4844 0.625 1.9609-0.32031 0.75391-0.52344 1.7539-0.28125 2.8398 0.5 2.1758 5.5156 4.0703 9.5234 5.2617-0.78125 1.0117-1.8789 2.4844-2.3398 3.4062-0.10156 0.19141-0.14063 0.39453-0.14063 0.61328l0.050782 1.9453c-1.5234 2.2656-6.3086 9.5234-7.6797 13.645-0.42188 0.88672-0.73047 1.7305-0.85938 2.5117-0.066406 0.37109 0.039063 0.75391 0.28125 1.0352 0.24609 0.29688 0.60156 0.46094 0.97656 0.46094l43.676-0.003906c0.70312 0 1.2812-0.57422 1.2812-1.2812v-9.0898c0-9.8945-12.734-22.246-13.27-22.77zm-18.535 9.7383 14.836-9.6484 0.58984 0.48438-14.352 11.766zm-14.902-28.996c-0.35938-0.19141-0.61328-0.34375-0.79688-0.47656 0.10156-0.050781 0.23047-0.10156 0.38672-0.15625 1.2031-0.44922 2.0742-0.82031 3.2656-1.3438 1.4609-0.64062 3.4688-1.5117 7.3359-3.0703 7.1055-2.8555 14.324-0.73047 18.328 2.6484 3.3008 2.7891 2.9688 7.5156 2.6758 11.684-0.074218 1.0508-0.14062 2.0352-0.15625 2.9453-0.015625 1.9336 0.41016 3.2891 0.97656 4.2344-2.625-0.050782-6.1289-1.5-6.3086-2.625-0.050781-0.34375-0.089844-0.73047-0.14062-1.1406-0.19141-1.8203-0.5-4.3398-2.1992-5.7109-0.023437-0.023437-0.066406-0.066406-0.089843-0.089844-1.3281-1.2148-3.25-0.89453-3.4688-0.85938-0.066407 0.015625-0.10156 0.050782-0.16406 0.066406-1.6641 0.26953-3.0703 1.2031-3.8242 1.8047-0.089844-0.066406-0.19141-0.14062-0.30469-0.23047-1.6484-1.3281-3.1992-4.6211-2.7891-5.4531 0.41016-0.82812 3.2148-2.8398 5.5781-4.2109 0.57422-0.33594 0.79688-1.0508 0.52344-1.6484-0.26953-0.60156-0.96094-0.88672-1.5859-0.66406l-14.336 5.0781c-0.42188-0.015625-1.625-0.10547-2.9062-0.78516zm4.4531 22.926c-0.21875-0.96094 0.38672-1.6914 0.39453-1.6992 0.26953-0.29688 0.37109-0.70312 0.29688-1.1016-0.074219-0.39453-0.33594-0.73047-0.69141-0.91016-0.10156-0.050782-0.29688-0.20313-0.29688-0.29688 0.066406-0.75391-0.10156-1.2305-0.20312-1.5508-0.074219-0.21875-0.089844-0.25391-0.023438-0.5 0.21875-0.96094 0.48438-1.5742 0.48438-1.5742 0.17969-0.39453 0.14062-0.85937-0.089844-1.2305-0.23047-0.35938-0.64062-0.58984-1.0742-0.58984-0.73828-0.015625-1.5234-0.11328-1.9336-0.26953 0.23047-0.5 1.0117-1.3945 1.4609-1.9219 1.2969-1.4844 2.75-3.1758 1.6484-4.7734l-0.17969-0.25391c-0.84375-1.2148-0.94531-1.3711-0.023438-2.7812 0.089844-0.12891 0.15625-0.28125 0.17969-0.43359 0 0 0.015624-0.039062 0.015624-0.074218l6.2188-2.1992c-0.074218 0.11328-0.14062 0.21875-0.19141 0.33594-1.2383 2.5352 1.5859 7.0547 3.4805 8.5742 0.89453 0.71484 1.9961 1.6133 2.9961 0.85938 0.19141-0.14062 0.33594-0.33594 0.42188-0.55078 0.65625-0.53906 2.2812-1.7148 3.8242-1.3047 0.15625 0.039063 0.29688 0.10156 0.43359 0.17969 0.24609 0.26953 0.26953 0.78125 0.23047 1.1797-0.16406 2.1016-2.6992 4.5703-3.6094 4.7734-0.015625-0.039063-0.023438-0.089844-0.039062-0.15625-0.12891-0.69141-0.79688-1.1484-1.5-1.0234-0.69141 0.12891-1.1484 0.79688-1.0234 1.5 0.30469 1.6641 1.4336 2.2539 2.4297 2.2539h0.12891c1.6133-0.089843 3.5938-1.7539 4.8633-3.75 0.023437 0.20313 0.039063 0.41016 0.074219 0.60156 0.26953 1.7812 1.9961 2.9961 3.9414 3.7656l-13.41 8.7266c-4.5352-1.2461-8.7852-3.0117-9.2305-3.8047z"/>
</svg>
